<svg width="161" height="57" viewBox="0 0 161 57" fill="none" xmlns="http://www.w3.org/2000/svg">
<path d="M57.692 23.38C57.692 23.29 57.692 23.2 57.682 23.1C57.672 22.84 57.642 22.58 57.612 22.33C57.592 22.18 57.572 22.03 57.542 21.88C57.532 21.8 57.522 21.73 57.502 21.65C57.502 21.62 57.492 21.58 57.482 21.55C57.482 21.49 57.462 21.43 57.442 21.38C57.372 21.05 57.282 20.71 57.182 20.39C57.132 20.23 57.082 20.08 57.022 19.93C56.972 19.8 56.922 19.67 56.872 19.54C56.792 19.33 56.692 19.12 56.602 18.92C56.572 18.86 56.542 18.8 56.512 18.75C56.412 18.53 56.302 18.33 56.182 18.12C56.152 18.06 56.112 18 56.072 17.94C56.042 17.89 56.012 17.84 55.982 17.8C55.922 17.69 55.852 17.59 55.782 17.49C55.762 17.46 55.732 17.42 55.712 17.39C55.672 17.33 55.632 17.27 55.582 17.21C55.572 17.19 55.552 17.17 55.542 17.15C55.482 17.06 55.412 16.97 55.342 16.88C55.262 16.77 55.172 16.67 55.092 16.56L55.072 16.54C54.972 16.41 54.862 16.29 54.752 16.17C54.682 16.09 54.622 16.02 54.552 15.95C54.492 15.88 54.432 15.82 54.362 15.76C54.292 15.69 54.232 15.63 54.162 15.57C54.102 15.51 54.032 15.45 53.972 15.39C53.892 15.31 53.812 15.24 53.722 15.17C53.652 15.11 53.572 15.05 53.502 14.99C53.412 14.92 53.332 14.85 53.242 14.78C53.162 14.72 53.082 14.65 52.992 14.6C52.922 14.55 52.852 14.5 52.782 14.45C52.712 14.4 52.642 14.35 52.582 14.31C52.532 14.28 52.492 14.25 52.442 14.22C52.382 14.18 52.322 14.14 52.262 14.11C52.222 14.08 52.172 14.06 52.132 14.03C52.002 13.95 51.872 13.88 51.742 13.81C51.682 13.78 51.622 13.74 51.562 13.71C51.312 13.58 51.052 13.45 50.792 13.34C50.762 13.33 50.722 13.31 50.692 13.3C50.542 13.24 50.392 13.18 50.232 13.12C50.142 13.09 50.062 13.06 49.972 13.03C49.882 13 49.792 12.97 49.702 12.94C49.572 12.9 49.442 12.86 49.312 12.83C49.282 12.83 49.262 12.81 49.232 12.81C49.162 12.79 49.092 12.77 49.022 12.75C48.952 12.73 48.882 12.72 48.812 12.7C48.682 12.67 48.552 12.65 48.422 12.62C48.392 12.62 48.362 12.61 48.332 12.6C48.212 12.58 48.102 12.56 47.982 12.54C47.842 12.52 47.702 12.5 47.562 12.49C47.422 12.47 47.272 12.46 47.132 12.45C47.022 12.44 46.922 12.43 46.822 12.43C46.772 12.43 46.722 12.43 46.672 12.43C46.562 12.43 46.442 12.43 46.332 12.43H12.142V44.69H23.532V35.2H46.312C46.462 35.2 46.602 35.2 46.752 35.2C46.862 35.2 46.972 35.2 47.082 35.18C47.202 35.18 47.312 35.17 47.422 35.15C47.532 35.15 47.642 35.13 47.752 35.11C47.912 35.09 48.062 35.07 48.222 35.04C48.302 35.03 48.372 35.02 48.452 35C48.642 34.97 48.832 34.92 49.012 34.88C49.152 34.85 49.282 34.81 49.422 34.77C49.512 34.75 49.602 34.72 49.692 34.69C50.022 34.59 50.352 34.47 50.672 34.33C50.722 34.31 50.782 34.29 50.832 34.26C50.882 34.24 50.932 34.21 50.992 34.19C51.162 34.12 51.322 34.04 51.492 33.95C51.512 33.94 51.542 33.93 51.562 33.91C51.702 33.84 51.842 33.76 51.972 33.69C52.052 33.64 52.132 33.6 52.212 33.55C52.632 33.29 53.032 33.01 53.412 32.71C53.482 32.65 53.562 32.59 53.632 32.53C53.722 32.46 53.812 32.38 53.892 32.3C53.982 32.22 54.062 32.14 54.152 32.06C54.242 31.98 54.322 31.9 54.402 31.82C54.452 31.77 54.492 31.73 54.542 31.68C54.562 31.66 54.582 31.64 54.602 31.62C54.672 31.54 54.752 31.46 54.822 31.38C54.902 31.29 54.982 31.21 55.052 31.12C55.122 31.03 55.202 30.95 55.272 30.86C55.302 30.82 55.342 30.77 55.372 30.73C55.412 30.68 55.452 30.62 55.502 30.56C55.502 30.56 55.512 30.56 55.512 30.54C55.602 30.43 55.682 30.31 55.752 30.19C55.842 30.06 55.922 29.94 56.002 29.81C56.032 29.76 56.072 29.7 56.102 29.65C56.132 29.6 56.162 29.55 56.192 29.5C56.242 29.42 56.282 29.34 56.332 29.26C56.392 29.15 56.452 29.05 56.502 28.93C56.562 28.82 56.612 28.71 56.662 28.6C56.712 28.49 56.762 28.37 56.812 28.26C56.862 28.15 56.912 28.03 56.952 27.92C57.002 27.8 57.042 27.69 57.082 27.57C57.122 27.45 57.162 27.33 57.202 27.22C57.242 27.1 57.272 26.98 57.302 26.86C57.332 26.75 57.362 26.65 57.382 26.54C57.412 26.41 57.452 26.28 57.472 26.14C57.472 26.14 57.472 26.14 57.472 26.13C57.492 26 57.522 25.87 57.542 25.74C57.572 25.59 57.592 25.43 57.612 25.27C57.632 25.13 57.642 24.99 57.662 24.84C57.662 24.74 57.672 24.64 57.682 24.54C57.682 24.44 57.692 24.34 57.692 24.24C57.692 24.1 57.692 23.97 57.692 23.83C57.692 23.69 57.692 23.56 57.692 23.43M44.412 25.68H23.532V21.88H44.412C44.942 21.88 45.412 22.09 45.752 22.44C45.842 22.53 45.912 22.62 45.982 22.72C45.992 22.74 46.002 22.76 46.012 22.78C46.192 23.07 46.302 23.42 46.302 23.78C46.302 24.21 46.152 24.61 45.912 24.93C45.562 25.39 45.022 25.69 44.412 25.69" fill="white"/>
<path d="M148.822 12.4V21.88H131.732V44.66H120.352V21.88H103.262V12.4H148.822Z" fill="white"/>
<path d="M103.262 25.68V33.27C103.262 33.92 103.212 34.55 103.102 35.17C102.202 40.55 97.522 44.65 91.892 44.65C91.662 44.65 91.4319 44.65 91.202 44.63C90.882 44.65 90.562 44.66 90.242 44.66H69.102C63.462 44.66 58.772 40.56 57.872 35.17C57.772 34.55 57.712 33.92 57.712 33.27V23.78C57.712 23.14 57.762 22.5 57.872 21.88C58.472 18.27 60.782 15.24 63.932 13.63C64.092 13.55 64.262 13.47 64.432 13.39C64.602 13.32 64.772 13.24 64.942 13.17C65.032 13.14 65.1119 13.1 65.202 13.07C65.292 13.04 65.382 13 65.462 12.98C65.552 12.95 65.642 12.92 65.732 12.89C65.822 12.86 65.912 12.83 66.002 12.81C66.072 12.79 66.132 12.77 66.212 12.76C66.342 12.72 66.482 12.69 66.622 12.66C66.762 12.63 66.902 12.6 67.042 12.57C67.062 12.57 67.082 12.57 67.102 12.56C67.222 12.54 67.342 12.52 67.472 12.5C67.522 12.49 67.572 12.48 67.622 12.48C67.642 12.48 67.652 12.48 67.672 12.48C67.802 12.47 67.922 12.45 68.052 12.44H68.082C68.232 12.43 68.382 12.42 68.532 12.41C68.722 12.41 68.922 12.4 69.122 12.4H91.922C97.562 12.4 102.242 16.5 103.142 21.88H72.922C72.432 21.88 71.962 21.98 71.532 22.14C71.352 22.21 71.1819 22.29 71.0219 22.39C70.7319 22.55 70.472 22.76 70.232 22.99C69.642 23.58 69.242 24.37 69.142 25.24C69.122 25.38 69.122 25.53 69.122 25.68V31.37C69.122 31.52 69.122 31.66 69.142 31.81C69.242 32.68 69.632 33.47 70.232 34.06C70.462 34.29 70.7319 34.5 71.0219 34.66C71.1819 34.75 71.342 34.83 71.512 34.9C71.832 35.03 72.172 35.11 72.532 35.15C72.552 35.15 72.5719 35.15 72.5919 35.15C72.6419 35.15 72.702 35.15 72.752 35.15C72.812 35.15 72.862 35.15 72.922 35.15H88.112C88.602 35.15 89.082 35.05 89.512 34.88C90.122 34.64 90.662 34.24 91.072 33.73C91.192 33.59 91.292 33.43 91.392 33.27C91.442 33.19 91.4819 33.11 91.5219 33.02C91.562 32.95 91.592 32.87 91.622 32.79C91.652 32.73 91.672 32.66 91.692 32.6C91.722 32.5 91.752 32.41 91.782 32.31C91.802 32.25 91.812 32.19 91.822 32.13C91.852 32.01 91.872 31.88 91.882 31.75C91.902 31.62 91.902 31.49 91.902 31.35H72.922V25.66H103.292L103.262 25.68Z" fill="white"/>
</svg>
